<?xml version="1.0" encoding="UTF-8" standalone="no"?>
<!-- Generator: Adobe Illustrator 13.0.2, SVG Export Plug-In . SVG Version: 6.00 Build 14948)  -->
<svg id="Layer_1" xmlns:rdf="http://www.w3.org/1999/02/22-rdf-syntax-ns#" xmlns="http://www.w3.org/2000/svg" enable-background="new 0 0 94.687 51.024" xml:space="preserve" height="51.024px" viewBox="0 0 94.687 51.024" width="94.687px" version="1.0" y="0px" x="0px" xmlns:cc="http://creativecommons.org/ns#" xmlns:dc="http://purl.org/dc/elements/1.1/"><metadata id="metadata248"><rdf:RDF><cc:Work rdf:about=""><dc:format>image/svg+xml</dc:format><dc:type rdf:resource="http://purl.org/dc/dcmitype/StillImage"/><dc:title/></cc:Work></rdf:RDF></metadata><g id="g236" opacity=".5"><path id="path238" d="m40.696 50.401v-48.705h15.516l11.726 33.493h0.141l11.092-33.493h15.516v48.705h-10.32v-34.517h-0.141l-12.287 34.517h-8.496l-12.286-34.175h-0.141v34.175h-10.32z"/></g><g id="g240" opacity=".5"><path id="path242" d="m46.268 17.531h-10.672c-0.328-2.41-1.545-4.434-3.651-6.071s-4.54-2.456-7.302-2.456c-4.634 0-8.144 1.729-10.531 5.185-2.06 2.957-3.089 6.798-3.089 11.527 0 4.549 1.029 8.277 3.089 11.187 2.434 3.411 5.944 5.117 10.531 5.117 3.276 0 5.921-1.023 7.934-3.07 1.872-1.911 3.02-4.523 3.44-7.845h10.672c-0.562 6.049-2.844 10.881-6.846 14.496-4.002 3.614-9.069 5.423-15.201 5.423-7.536 0-13.574-2.456-18.114-7.368-4.352-4.684-6.528-10.664-6.528-17.94 0-7.458 2.176-13.55 6.529-18.282 4.494-4.955 10.532-7.434 18.114-7.434 5.71 0 10.532 1.523 14.463 4.57 4.119 3.183 6.506 7.504 7.162 12.961z" fill="#31C5F4"/></g></svg>
